<svg xmlns="http://www.w3.org/2000/svg"
viewBox="0 0 1024 1024">
<polyline points="646.0,632.5 644.0,630.5 641.5,629.0 639.5,627.0 642.0,627.5 643.0,627.5 641.0,625.5 638.5,624.0 636.0,622.5 634.0,620.5 634.0,622.5 631.5,621.0 631.5,619.0 629.5,618.0 631.5,620.0 629.0,619.5 628.0,617.5 627.0,615.5 625.0,613.5 622.5,612.0 620.5,610.0 618.0,608.5 618.5,606.0 620.5,604.0 622.5,602.0 624.5,600.0 626.0,597.5 628.0,595.5 627.0,595.5 625.0,597.5 625.5,595.0 627.5,593.0 629.5,593.0 631.5,591.0 633.5,589.0 635.0,586.5 634.0,586.5 632.5,586.0 634.5,584.0 636.5,584.0 636.5,583.0 636.0,581.5 638.0,581.5 640.0,579.5 641.5,577.0 639.5,577.0 640.5,574.0 642.5,572.0 643.0,573.5 642.0,575.5 644.0,573.5 645.5,571.0 643.5,571.0 644.5,568.0 646.5,567.0 646.0,569.5 647.5,567.0 647.5,566.0 647.0,564.5 648.5,562.0 650.5,562.0 650.5,561.0 650.0,559.5 651.5,558.0 652.5,558.0 652.5,557.0 652.0,555.5 653.5,553.0 654.5,550.0 656.0,547.5 657.5,545.0 658.5,542.0 660.0,539.5 661.5,541.0 662.5,538.0 663.0,535.5 663.0,532.5 664.5,530.0 665.5,527.0 666.5,524.0 667.5,521.0 668.5,518.0 669.5,515.0 670.5,512.0 671.5,509.0 672.5,506.0 673.5,503.0 674.5,503.0 675.5,503.0 674.5,500.0 675.5,497.0 676.0,493.5 676.5,490.0 677.5,487.0 678.5,484.0 679.0,480.5 679.5,477.0 680.5,474.0 680.5,470.0 681.5,467.0 682.5,464.0 682.5,460.0 683.5,457.0 683.5,453.0 684.0,449.5 684.5,446.0 684.5,442.0 684.5,438.0 685.5,435.0 685.5,431.0 685.5,427.0 685.5,423.0 685.5,419.0 685.5,415.0 685.5,411.0 684.5,408.0 684.5,404.0 684.5,400.0 684.5,396.0 683.5,393.0 683.5,389.0 682.5,386.0 682.5,382.0 681.5,379.0 681.5,375.0 680.5,372.0 680.0,368.5 679.5,365.0 678.5,362.0 677.5,359.0 678.0,355.5 679.0,358.5 679.0,355.5 678.5,352.0 677.5,354.0 676.5,354.0 675.5,351.0 676.0,347.5 676.0,344.5 675.0,347.5 674.0,344.5 673.0,341.5 672.0,338.5 671.0,335.5 670.0,332.5 669.0,329.5 669.0,326.5 668.5,325.0 667.0,325.5 666.0,322.5 665.0,319.5 665.0,316.5 664.5,314.0 663.5,311.0 662.0,312.5 660.5,310.0 659.5,307.0 658.0,304.5 656.5,302.0 655.5,299.0 655.0,296.5 656.0,296.5 654.5,294.0 654.5,295.0 653.0,295.5 651.5,293.0 653.0,292.5 652.0,290.5 650.0,290.5 648.5,288.0 647.0,285.5 645.5,283.0 645.0,280.5 646.0,280.5 644.0,280.5 642.0,278.5 642.5,277.0 642.5,276.0 640.5,276.0 638.5,274.0 638.0,271.5 640.0,273.5 639.0,271.5 637.0,271.5 635.0,269.5 633.5,267.0 635.5,268.0 637.5,269.0 635.5,267.0 633.5,266.0 631.5,265.0 629.5,263.0 627.5,261.0 627.0,258.5 629.0,260.5 631.0,262.5 630.0,260.5 628.0,258.5 626.0,256.5 624.0,254.5 622.0,254.5 619.5,253.0 620.0,250.5 618.0,248.5 617.0,248.5 619.0,250.5 617.5,252.0 616.5,250.0 614.5,248.0 612.5,246.0 610.5,244.0 610.5,242.0 608.5,240.0 608.5,241.0 608.0,242.5 606.0,240.5 606.0,238.5 604.0,236.5 605.0,238.5 603.5,239.0 601.5,237.0 599.0,235.5 598.0,233.5 597.0,231.5 597.0,233.5 594.5,232.0 594.5,230.0 594.5,231.0 592.0,230.5 592.0,228.5 591.0,228.5 589.5,229.0 589.5,227.0 587.5,226.0 587.0,227.5 584.5,226.0 582.0,224.5 582.0,222.5 581.0,222.5 579.5,223.0 577.0,221.5 574.0,220.5 575.5,219.0 573.0,217.5 573.0,219.5 570.0,218.5 571.5,217.0 569.0,215.5 569.0,217.5 566.0,216.5 567.5,215.0 565.0,213.5 565.0,214.5 563.0,215.5 560.5,214.0 557.5,213.0 554.5,212.0 551.5,211.0 548.5,210.0 546.0,208.5 542.5,208.0 539.5,207.0 536.0,206.5 533.0,205.5 530.0,204.5 526.5,204.0 523.0,203.5 520.0,202.5 516.0,202.5 513.0,201.5 509.0,201.5 505.5,201.0 502.0,200.5 498.0,200.5 494.0,200.5 490.0,200.5 486.0,200.5 482.0,200.5 478.0,200.5 474.0,200.5 471.0,201.5 467.0,201.5 464.0,202.5 460.0,202.5 457.0,203.5 453.0,203.5 450.0,204.5 447.0,205.5 444.0,206.5 440.5,207.0 437.5,208.0 434.0,208.5 431.0,209.5 428.0,210.5 425.5,212.0 422.5,213.0 420.0,214.5 417.0,215.5 414.0,216.5 411.0,217.5 408.5,219.0 406.0,220.5 403.0,221.5 400.5,223.0 398.0,224.5 395.5,224.0 395.5,226.0 393.0,227.5 390.5,229.0 389.0,228.5 388.0,228.5 385.5,230.0 385.5,232.0 383.0,233.5 381.0,235.5 380.5,234.0 378.5,235.0 378.5,237.0 377.0,236.5 376.0,236.5 375.0,238.5 374.0,240.5 371.5,241.0 371.5,240.0 371.5,242.0 369.5,244.0 367.0,245.5 365.0,245.5 364.0,247.5 363.0,249.5 361.0,251.5 359.0,253.5 357.0,255.5 355.0,257.5 353.0,259.5 351.0,261.5 349.0,261.5 347.0,263.5 348.0,263.5 349.5,264.0 347.5,266.0 345.5,268.0 344.0,270.5 342.0,272.5 340.0,272.5 338.0,274.5 339.0,274.5 340.5,275.0 338.5,277.0 336.5,277.0 336.5,278.0 337.0,279.5 335.0,281.5 334.0,281.5 333.5,284.0 332.0,286.5 330.5,289.0 329.0,291.5 327.0,291.5 326.0,293.5 327.5,294.0 326.0,296.5 324.5,299.0 324.0,297.5 323.0,297.5 321.5,300.0 323.5,300.0 322.5,303.0 321.0,305.5 319.5,308.0 318.5,311.0 317.0,313.5 315.5,312.0 314.5,315.0 316.0,313.5 316.0,316.5 314.5,319.0 313.5,322.0 312.5,325.0 311.5,328.0 310.5,331.0 309.5,334.0 308.0,336.5 307.5,340.0 306.5,343.0 305.5,346.0 304.5,349.0 303.5,352.0 303.0,355.5 302.5,359.0 301.5,362.0 300.5,365.0 300.5,369.0 299.5,372.0 299.0,375.5 298.5,379.0 298.0,382.5 297.5,386.0 297.5,390.0 296.5,393.0 296.5,397.0 296.5,401.0 296.5,405.0 296.5,409.0 295.5,412.0 295.5,416.0 296.5,419.0 295.5,422.0 296.5,425.0 296.5,429.0 296.5,433.0 296.5,437.0 297.5,440.0 297.5,444.0 297.5,448.0 298.5,451.0 298.5,455.0 299.5,458.0 299.5,462.0 300.5,465.0 301.5,468.0 302.0,471.5 302.5,475.0 303.5,478.0 304.5,481.0 305.0,484.5 306.0,487.5 307.0,490.5 307.5,494.0 308.5,497.0 309.5,500.0 309.0,502.5 310.5,501.0 309.5,504.0 310.5,504.0 312.0,505.5 313.0,508.5 313.0,511.5 311.5,510.0 312.5,513.0 314.0,511.5 315.5,514.0 316.5,517.0 314.5,519.0 312.0,520.5 309.5,522.0 308.0,521.5 307.0,521.5 307.0,523.5 304.5,523.0 304.5,525.0 302.0,526.5 299.5,526.0 299.5,528.0 298.0,527.5 297.0,527.5 294.5,529.0 294.5,530.0 297.0,528.5 296.0,530.5 293.5,532.0 291.0,533.5 289.0,535.5 288.5,534.0 288.5,533.0 286.5,535.0 286.5,537.0 285.0,536.5 284.0,536.5 281.5,538.0 279.5,540.0 279.5,542.0 277.5,544.0 276.0,543.5 278.0,541.5 277.0,541.5 275.0,543.5 275.0,545.5 273.0,547.5 271.0,549.5 268.0,550.5 268.0,547.5 269.0,547.5 267.0,547.5 265.5,545.0 265.0,542.5 266.0,542.5 264.5,540.0 264.5,541.0 263.0,541.5 261.5,539.0 263.0,538.5 262.5,536.0 261.0,533.5 259.5,531.0 258.5,528.0 257.0,529.5 255.5,527.0 254.5,524.0 253.0,521.5 253.0,518.5 254.5,521.0 255.5,521.0 254.0,518.5 252.5,517.0 251.5,517.0 250.0,514.5 249.0,511.5 249.0,508.5 250.5,510.0 249.5,507.0 248.5,504.0 247.5,501.0 246.5,498.0 245.5,495.0 244.5,495.0 243.5,495.0 242.5,492.0 241.5,489.0 242.0,485.5 242.5,489.0 243.5,487.0 242.5,484.0 241.5,484.0 240.5,484.0 239.5,481.0 239.0,477.5 238.5,474.0 237.5,471.0 236.5,468.0 236.5,464.0 237.5,461.0 237.5,457.0 236.5,455.0 236.5,459.0 235.5,461.0 235.5,457.0 234.5,454.0 234.5,450.0 234.5,446.0 233.5,443.0 233.5,439.0 233.5,435.0 233.5,431.0 233.5,427.0 233.5,423.0 233.5,419.0 233.5,415.0 234.0,411.5 234.5,408.0 234.5,404.0 235.0,400.5 235.5,397.0 235.5,393.0 236.5,390.0 236.5,386.0 237.5,383.0 238.5,380.0 238.5,376.0 239.5,373.0 240.5,370.0 241.0,366.5 241.5,363.0 242.5,360.0 243.5,362.0 244.5,360.0 245.5,357.0 246.5,354.0 247.5,351.0 246.5,353.0 245.5,356.0 244.5,354.0 245.5,351.0 246.5,348.0 247.5,345.0 248.5,342.0 249.5,339.0 251.0,336.5 252.5,338.0 253.5,335.0 252.0,336.5 252.0,333.5 253.5,332.0 254.5,332.0 255.0,329.5 253.5,331.0 254.5,328.0 255.5,325.0 257.0,326.5 258.5,324.0 259.5,321.0 259.5,320.0 259.0,318.5 260.5,317.0 261.5,317.0 263.0,314.5 262.0,314.5 262.5,312.0 264.0,309.5 266.0,309.5 267.5,307.0 265.5,307.0 266.5,304.0 268.5,303.0 268.0,305.5 269.5,303.0 269.5,302.0 269.0,300.5 271.0,300.5 272.0,298.5 270.5,298.0 272.0,295.5 273.5,293.0 275.5,291.0 277.0,288.5 279.0,288.5 281.0,286.5 280.0,286.5 278.5,286.0 280.5,284.0 282.5,284.0 284.5,282.0 284.5,281.0 282.5,282.0 284.0,279.5 286.0,279.5 288.0,277.5 289.0,275.5 287.0,277.5 287.5,275.0 289.5,274.0 291.5,273.0 293.5,271.0 295.5,269.0 297.5,267.0 297.5,266.0 295.5,268.0 293.5,270.0 291.5,271.0 293.0,268.5 295.0,266.5 297.0,264.5 299.0,262.5 301.0,262.5 303.0,260.5 303.0,258.5 305.0,256.5 307.0,254.5 309.0,252.5 311.0,250.5 313.5,250.0 311.5,252.0 309.5,254.0 309.5,255.0 311.5,253.0 313.5,251.0 315.5,249.0 315.5,247.0 317.5,245.0 319.5,243.0 321.0,243.5 319.0,245.5 318.0,247.5 320.0,245.5 322.0,243.5 322.0,241.5 324.0,239.5 326.5,238.0 328.5,236.0 330.0,236.5 329.0,238.5 331.0,236.5 333.5,235.0 336.0,233.5 338.0,231.5 340.5,230.0 340.5,228.0 343.0,226.5 343.0,228.5 345.5,227.0 345.5,226.0 344.0,225.5 346.5,224.0 349.0,222.5 351.5,221.0 353.0,221.5 354.0,221.5 357.0,220.5 358.0,218.5 355.5,219.0 358.0,217.5 360.5,216.0 363.0,214.5 366.0,213.5 368.5,212.0 370.0,212.5 371.0,212.5 374.0,211.5 376.5,210.0 378.0,208.5 378.0,207.5 380.5,206.0 383.5,205.0 386.0,203.5 389.0,202.5 392.0,201.5 395.0,200.5 398.0,199.5 400.5,200.0 399.0,198.5 402.0,197.5 405.0,196.5 408.0,195.5 411.0,194.5 414.5,194.0 417.5,193.0 421.0,192.5 424.0,191.5 427.0,190.5 430.0,189.5 434.0,189.5 437.0,188.5 440.5,188.0 444.0,187.5 447.0,186.5 451.0,186.5 454.5,186.0 458.0,185.5 462.0,185.5 465.0,184.5 469.0,184.5 473.0,184.5 477.0,184.5 480.5,184.0 482.5,184.0 486.0,183.5 490.0,183.5 494.0,183.5 497.5,184.0 500.0,183.5 503.0,184.5 507.0,184.5 510.5,185.0 512.5,185.0 516.0,185.5 520.0,185.5 523.0,186.5 527.0,186.5 530.0,187.5 534.0,187.5 537.0,188.5 540.0,189.5 544.0,189.5 547.0,190.5 550.0,191.5 553.5,192.0 557.0,192.5 560.0,193.5 563.0,194.5 566.0,195.5 569.0,196.5 572.0,197.5 575.0,198.5 575.0,199.5 576.5,200.0 579.5,200.0 582.5,201.0 585.5,202.0 588.5,203.0 591.0,204.5 594.0,205.5 597.0,206.5 599.5,208.0 602.0,209.5 602.5,211.0 605.0,210.5 605.0,212.5 607.5,212.0 610.0,213.5 613.0,214.5 613.0,216.5 614.0,216.5 615.5,216.0 618.0,217.5 620.5,219.0 620.5,220.0 623.0,220.5 626.0,221.5 628.5,223.0 631.0,224.5 633.5,226.0 636.0,227.5 638.0,229.5 640.5,231.0 643.0,232.5 644.0,234.5 645.0,236.5 645.0,234.5 647.5,236.0 650.0,237.5 651.0,239.5 652.0,241.5 653.0,241.5 652.0,239.5 654.5,241.0 656.5,243.0 656.5,245.0 656.5,244.0 659.0,244.5 661.0,246.5 663.5,248.0 665.5,250.0 667.5,252.0 669.5,254.0 669.5,256.0 671.5,257.0 669.5,255.0 672.0,255.5 674.0,257.5 676.0,259.5 678.0,261.5 680.0,263.5 682.0,265.5 684.0,267.5 686.0,269.5 688.0,271.5 687.5,273.0 685.5,272.0 687.5,274.0 690.0,273.5 691.5,276.0 693.5,278.0 693.0,280.5 695.0,280.5 697.0,282.5 698.5,285.0 696.5,284.0 696.5,285.0 698.5,286.0 700.5,287.0 701.0,289.5 700.0,289.5 702.0,289.5 704.0,291.5 705.5,294.0 706.0,296.5 705.0,296.5 707.0,296.5 709.0,298.5 710.5,301.0 709.0,301.5 710.0,303.5 712.0,303.5 713.5,306.0 715.0,308.5 716.5,311.0 718.0,312.5 718.5,315.0 720.5,317.0 721.5,320.0 723.0,322.5 724.5,325.0 725.5,328.0 727.0,330.5 728.5,333.0 729.5,336.0 730.5,339.0 732.0,341.5 733.0,344.5 734.5,347.0 735.5,350.0 736.5,353.0 737.5,356.0 738.5,359.0 739.5,362.0 740.0,365.5 741.0,368.5 741.5,372.0 742.5,375.0 743.5,378.0 744.5,381.0 745.5,384.0 745.5,388.0 746.5,391.0 746.5,395.0 747.5,398.0 748.0,401.5 748.5,405.0 748.5,409.0 749.5,412.0 749.5,416.0 749.5,420.0 750.5,423.0 750.5,427.0 750.5,431.0 750.5,435.0 750.5,439.0 750.5,443.0 749.5,446.0 749.5,450.0 749.5,454.0 748.5,457.0 748.5,461.0 748.0,464.5 747.5,468.0 747.5,472.0 746.5,475.0 746.0,478.5 745.5,482.0 744.5,485.0 743.5,488.0 743.0,491.5 742.5,495.0 741.5,498.0 740.5,501.0 739.5,504.0 738.5,507.0 737.5,510.0 736.5,513.0 735.5,516.0 734.5,519.0 733.5,522.0 732.0,524.5 731.0,527.5 729.5,530.0 728.5,533.0 727.5,536.0 726.0,538.5 724.5,541.0 723.5,544.0 721.5,545.0 722.0,542.5 720.5,545.0 719.0,547.5 720.0,547.5 719.5,550.0 718.5,553.0 716.5,554.0 717.0,551.5 715.5,554.0 715.5,555.0 716.0,556.5 714.5,559.0 713.0,561.5 711.5,561.0 711.5,560.0 710.0,562.5 708.5,565.0 708.5,566.0 709.0,567.5 707.0,567.5 705.0,569.5 706.0,569.5 707.5,570.0 705.5,572.0 704.0,574.5 702.0,574.5 700.0,576.5 698.5,579.0 698.5,580.0 700.5,579.0 699.0,581.5 697.0,583.5 695.0,583.5 694.0,585.5 696.0,583.5 695.5,586.0 693.5,588.0 691.5,588.0 689.5,590.0 687.5,592.0 689.5,591.0 691.5,589.0 692.0,590.5 690.0,592.5 688.5,595.0 687.0,594.5 686.0,594.5 684.0,596.5 682.0,598.5 680.0,600.5 678.0,602.5 676.0,604.5 674.0,606.5 672.0,608.5 670.0,610.5 668.0,612.5 666.0,614.5 666.0,616.5 664.0,618.5 661.5,619.0 663.5,617.0 663.5,616.0 661.5,618.0 659.5,620.0 657.0,621.5 656.0,623.5 658.0,621.5 658.5,623.0 656.0,624.5 654.0,626.5 651.5,627.0 653.5,625.0 651.5,626.0 651.5,628.0 649.5,630.0 647.0,631.5" fill="none" stroke="#314126" stroke-width="2"/><polyline points="544.0,555.5 542.0,553.5 543.5,553.0 544.0,551.5 541.0,552.5 538.5,551.0 538.5,549.0 536.0,549.5 533.5,548.0 534.0,546.5 535.0,546.5 532.5,545.0 532.5,546.0 530.0,545.5 530.0,543.5 527.5,542.0 525.5,541.0 525.0,542.5 522.5,541.0 523.0,539.5 524.0,539.5 521.5,538.0 521.5,539.0 519.0,538.5 516.5,537.0 519.0,537.5 518.0,535.5 516.5,533.0 516.5,529.0 516.5,525.0 516.5,521.0 516.5,517.0 516.5,513.0 516.5,509.0 516.5,505.0 516.5,501.0 516.5,497.0 516.5,493.0 516.5,489.0 516.5,485.0 516.5,481.0 516.5,477.0 516.5,473.0 516.5,469.0 516.5,465.0 516.5,461.0 516.5,457.0 516.5,453.0 516.5,449.0 516.5,445.0 516.5,441.0 516.5,437.0 516.5,433.0 516.5,429.0 516.5,425.0 516.5,421.0 516.5,417.0 514.5,416.0 515.5,419.0 515.5,423.0 515.5,427.0 515.5,431.0 515.5,435.0 515.5,439.0 515.5,443.0 515.5,447.0 515.5,451.0 515.5,455.0 515.5,459.0 515.5,463.0 515.5,467.0 515.5,471.0 515.5,475.0 515.5,479.0 515.5,483.0 515.5,487.0 515.5,491.0 515.5,495.0 515.5,499.0 515.5,503.0 515.5,507.0 515.5,511.0 515.5,515.0 515.5,519.0 515.5,523.0 515.5,527.0 515.5,531.0 515.5,535.0 515.0,536.5 512.5,535.0 510.0,533.5 507.5,532.0 508.5,529.0 508.5,527.0 507.5,524.0 508.5,521.0 508.5,517.0 508.5,513.0 508.0,510.5 508.0,508.5 508.0,506.5 508.5,503.0 508.5,499.0 508.0,495.5 508.5,493.0 507.5,490.0 508.0,487.5 508.5,485.0 508.5,481.0 508.0,478.5 508.0,475.5 508.5,473.0 508.5,469.0 506.5,468.0 506.5,472.0 506.5,476.0 506.5,480.0 506.5,484.0 506.5,488.0 506.5,492.0 506.5,496.0 506.5,500.0 506.5,504.0 506.5,508.0 506.5,512.0 506.5,516.0 506.5,520.0 506.5,524.0 506.5,528.0 507.5,531.0 505.0,530.5 502.0,529.5 503.5,528.0 501.0,526.5 501.0,527.5 499.0,528.5 496.5,527.0 495.0,525.5 495.0,524.5 492.5,524.0 494.0,525.5 491.0,524.5 488.0,523.5 485.0,522.5 482.0,521.5 479.0,520.5 476.0,519.5 478.0,518.5 476.0,517.5 475.5,514.0 475.5,510.0 475.5,506.0 475.5,502.0 475.5,498.0 475.5,494.0 475.5,490.0 475.5,486.0 475.5,482.0 475.5,478.0 475.5,474.0 475.5,470.0 475.5,466.0 475.5,462.0 475.5,458.0 475.5,454.0 475.5,450.0 475.5,446.0 475.5,442.0 475.5,438.0 475.5,434.0 475.5,430.0 475.5,426.0 475.5,422.0 475.5,418.0 475.5,414.0 475.5,410.0 475.5,406.0 478.0,404.5 479.0,401.5 480.0,404.5 481.5,402.0 481.5,398.0 481.5,394.0 481.5,390.0 481.5,386.0 481.5,382.0 481.5,378.0 481.5,374.0 481.5,370.0 480.5,367.0 481.5,364.0 481.5,362.0 483.5,360.0 486.0,358.5 488.0,356.5 490.5,355.0 492.5,353.0 495.0,351.5 494.0,353.5 493.5,357.0 493.5,361.0 493.5,365.0 493.5,369.0 493.5,373.0 493.5,377.0 493.5,381.0 493.5,385.0 493.5,389.0 493.5,393.0 493.5,397.0 493.5,401.0 493.5,405.0 495.5,407.0 498.0,408.5 501.0,409.5 503.5,411.0 506.0,412.5 509.0,413.5 511.5,415.0 513.0,414.5 510.0,413.5 507.5,412.0 505.0,410.5 502.0,409.5 499.5,408.0 497.0,406.5 494.5,405.0 494.5,401.0 494.5,397.0 494.5,393.0 494.5,389.0 494.5,385.0 494.5,381.0 494.5,377.0 494.5,373.0 494.5,369.0 494.5,365.0 494.5,361.0 494.5,357.0 495.0,353.5 497.0,351.5 497.0,349.5 499.5,349.0 499.5,350.0 501.5,348.0 501.5,346.0 503.5,344.0 505.0,344.5 506.0,344.5 506.0,342.5 508.0,340.5 510.5,340.0 510.5,339.0 512.5,337.0 515.0,335.5 514.0,337.5 515.0,337.5 517.0,335.5 519.0,333.5 521.5,332.0 523.5,330.0 523.5,328.0 525.5,326.0 527.0,326.5 528.0,326.5 528.0,324.5 530.0,322.5 532.5,322.0 532.5,323.0 532.5,321.0 534.5,319.0 537.0,317.5 539.0,317.5 540.0,315.5 541.0,313.5 543.0,311.5 545.5,311.0 545.5,315.0 545.5,319.0 545.5,323.0 545.5,327.0 545.5,331.0 545.5,335.0 545.5,339.0 545.5,343.0 545.5,347.0 545.5,351.0 545.5,355.0 545.5,359.0 545.5,363.0 545.5,367.0 545.5,371.0 545.5,375.0 545.5,379.0 545.5,383.0 545.5,387.0 545.5,391.0 545.5,395.0 545.5,399.0 545.5,403.0 545.5,407.0 545.5,411.0 545.5,415.0 545.5,419.0 545.5,423.0 545.5,427.0 545.5,431.0 545.5,435.0 545.5,439.0 545.5,443.0 545.5,447.0 545.5,451.0 545.5,455.0 545.5,459.0 545.5,463.0 545.5,467.0 545.5,471.0 545.5,475.0 545.5,479.0 545.5,483.0 545.5,487.0 545.5,491.0 545.5,495.0 545.5,499.0 545.5,503.0 545.5,507.0 545.5,511.0 545.5,515.0 545.5,519.0 545.5,523.0 545.5,527.0 545.5,531.0 545.5,535.0 545.5,539.0 545.5,543.0 545.5,547.0 545.5,551.0 545.0,554.5" fill="none" stroke="#314126" stroke-width="2"/><polyline points="475.0,518.5 472.0,517.5 469.0,516.5 466.0,515.5 462.5,515.0 459.5,514.0 456.0,513.5 453.0,512.5 449.5,512.0 446.0,511.5 443.0,510.5 439.0,510.5 436.0,509.5 432.0,509.5 429.0,508.5 425.0,508.5 421.0,508.5 418.0,507.5 417.5,504.0 417.5,500.0 417.5,496.0 417.5,492.0 417.5,488.0 417.5,484.0 417.5,480.0 417.5,476.0 417.5,472.0 417.5,468.0 417.5,464.0 417.5,460.0 417.5,456.0 417.5,452.0 417.5,448.0 417.5,444.0 417.5,440.0 417.5,436.0 418.5,433.0 421.0,431.5 424.0,430.5 426.5,429.0 429.0,427.5 431.5,426.0 434.0,424.5 436.5,423.0 439.0,421.5 442.0,420.5 444.5,419.0 447.0,417.5 448.5,416.0 451.0,415.5 453.5,414.0 456.0,412.5 458.5,411.0 461.0,409.5 463.5,408.0 466.0,406.5 469.0,405.5 471.0,403.5 474.0,402.5 476.5,404.0 474.5,406.0 474.5,410.0 474.5,414.0 474.5,418.0 474.5,422.0 474.5,426.0 474.5,430.0 474.5,434.0 474.5,438.0 474.5,442.0 474.5,446.0 474.5,450.0 474.5,454.0 474.5,458.0 474.5,462.0 474.5,466.0 474.5,470.0 474.5,474.0 474.5,478.0 474.5,482.0 474.5,486.0 474.5,490.0 474.5,494.0 474.5,498.0 474.5,502.0 474.5,506.0 474.5,510.0 474.5,514.0 475.0,517.5" fill="none" stroke="#314126" stroke-width="2"/><polyline points="508.5,466.0 508.5,462.0 508.5,458.0 507.5,455.0 508.5,452.0 508.5,450.0 508.5,446.0 508.5,444.0 508.5,442.0 507.5,439.0 507.5,435.0 507.5,431.0 507.5,427.0 508.5,424.0 508.0,421.5 507.0,419.5 506.5,423.0 506.5,427.0 506.5,431.0 506.5,435.0 506.5,439.0 506.5,443.0 506.5,447.0 506.5,451.0 506.5,455.0 507.0,458.5 506.5,461.0 506.5,465.0 508.5,466.0" fill="none" stroke="#314126" stroke-width="2"/><polyline points="591.0,591.5 590.0,589.5 589.0,587.5 587.0,585.5 586.0,585.5 587.0,587.5 584.5,586.0 582.0,584.5 580.0,582.5 579.0,580.5 578.0,578.5 577.0,578.5 578.0,580.5 575.5,579.0 573.5,577.0 573.5,575.0 571.5,574.0 573.5,576.0 571.0,575.5 569.0,573.5 569.0,571.5 568.0,571.5 566.5,572.0 564.5,570.0 564.5,568.0 564.5,569.0 562.0,568.5 562.0,566.5 560.0,564.5 561.0,566.5 559.5,567.0 557.0,565.5 555.0,563.5 552.5,562.0 552.5,558.0 552.5,554.0 552.5,550.0 552.5,546.0 552.5,542.0 552.5,538.0 552.5,534.0 552.5,530.0 552.5,526.0 552.5,522.0 552.5,518.0 552.5,514.0 552.5,510.0 552.5,506.0 552.5,502.0 552.5,498.0 552.5,494.0 552.5,490.0 552.5,486.0 552.5,482.0 552.5,478.0 552.5,474.0 552.5,470.0 552.5,466.0 552.5,462.0 552.5,458.0 552.5,454.0 552.5,450.0 552.5,446.0 552.5,442.0 552.5,438.0 553.0,434.5 555.5,436.0 558.0,437.5 560.5,439.0 563.0,440.5 565.5,442.0 568.0,443.5 570.0,445.5 573.0,446.5 575.5,448.0 578.0,449.5 580.0,451.5 582.5,453.0 585.0,454.5 587.5,456.0 590.0,457.5 591.5,460.0 591.5,464.0 591.5,468.0 591.5,472.0 591.5,476.0 591.5,480.0 591.5,484.0 591.5,488.0 591.5,492.0 591.5,496.0 591.5,500.0 591.5,504.0 591.5,508.0 591.5,512.0 591.5,516.0 591.5,520.0 591.5,524.0 591.5,528.0 591.5,532.0 591.5,536.0 591.5,540.0 591.5,544.0 591.5,548.0 591.5,552.0 591.5,556.0 591.5,560.0 591.5,564.0 591.5,568.0 591.5,572.0 591.5,576.0 591.5,580.0 591.5,584.0 591.5,588.0 591.0,591.5" fill="none" stroke="#314126" stroke-width="2"/><polyline points="758.0,685.5 754.0,685.5 750.0,685.5 746.0,685.5 742.0,685.5 738.0,685.5 734.0,685.5 730.0,685.5 726.0,685.5 723.0,684.5 719.0,684.5 715.5,684.0 712.0,683.5 708.5,683.0 705.0,682.5 702.0,681.5 698.0,681.5 695.0,680.5 692.0,679.5 689.0,678.5 687.0,677.5 686.0,677.5 684.0,677.5 681.0,676.5 678.0,675.5 675.0,674.5 673.0,673.5 673.0,672.5 670.0,673.5 667.0,672.5 664.0,671.5 661.0,670.5 658.0,669.5 655.0,668.5 652.5,667.0 650.0,665.5 647.0,664.5 644.0,663.5 641.0,662.5 638.5,661.0 636.0,659.5 633.0,658.5 630.0,657.5 627.5,656.0 625.0,654.5 622.0,653.5 619.5,652.0 617.0,650.5 614.0,649.5 612.0,647.5 609.0,646.5 606.5,645.0 604.0,643.5 601.5,642.0 599.0,640.5 596.5,639.0 594.0,637.5 591.5,636.0 589.0,634.5 586.5,633.0 584.0,631.5 581.5,630.0 579.0,628.5 576.5,627.0 574.0,625.5 571.5,624.0 569.0,622.5 566.5,621.0 564.0,619.5 561.5,618.0 559.0,616.5 556.5,615.0 554.0,613.5 551.5,612.0 549.0,610.5 546.5,609.0 544.0,607.5 541.5,606.0 539.0,604.5 536.5,603.0 534.0,601.5 531.5,600.0 529.0,598.5 526.5,597.0 524.0,595.5 521.5,594.0 519.0,592.5 516.0,591.5 513.5,590.0 511.0,588.5 508.5,587.0 506.0,585.5 503.0,584.5 500.5,583.0 498.0,581.5 495.0,580.5 492.0,579.5 489.5,578.0 487.0,576.5 484.0,575.5 481.0,574.5 478.5,573.0 475.5,572.0 473.0,570.5 470.0,569.5 467.0,568.5 464.0,567.5 461.0,566.5 458.0,565.5 455.0,564.5 452.0,563.5 449.0,562.5 446.0,561.5 443.0,560.5 439.5,560.0 436.0,559.5 433.0,558.5 430.0,557.5 426.5,557.0 423.0,556.5 420.0,555.5 416.0,555.5 413.0,554.5 409.5,554.0 406.0,553.5 402.0,553.5 399.0,552.5 395.0,552.5 391.0,552.5 387.0,552.5 383.5,552.0 381.5,552.0 378.5,552.0 376.0,551.5 372.0,551.5 369.0,552.5 365.0,552.5 361.0,552.5 357.0,552.5 353.0,552.5 350.0,553.5 346.0,553.5 343.0,554.5 339.0,554.5 336.0,555.5 332.5,556.0 329.0,556.5 326.0,557.5 323.0,558.5 319.5,559.0 316.0,559.5 313.0,560.5 310.0,561.5 307.0,562.5 304.0,563.5 301.0,564.5 298.0,565.5 295.5,567.0 292.5,568.0 290.0,569.5 287.0,570.5 284.0,571.5 281.5,573.0 279.0,574.5 278.5,573.0 276.0,573.5 273.5,575.0 275.0,576.5 272.0,577.5 269.5,577.0 267.0,578.5 268.0,578.5 268.5,580.0 266.0,581.5 265.5,580.0 263.0,580.5 261.0,582.5 258.5,584.0 258.5,586.0 256.0,585.5 256.0,587.5 254.0,589.5 251.5,591.0 249.0,592.5 247.0,594.5 244.5,596.0 241.5,596.0 243.0,595.5 244.5,593.0 246.5,592.0 248.5,591.0 250.0,589.5 247.5,591.0 247.0,589.5 249.0,587.5 251.0,587.5 253.0,585.5 252.0,585.5 252.5,583.0 254.5,581.0 256.0,578.5 258.0,576.5 260.0,574.5 262.0,574.5 262.0,572.5 264.0,570.5 266.0,568.5 268.0,566.5 270.5,566.0 268.5,568.0 266.5,570.0 264.5,572.0 264.5,573.0 266.5,571.0 268.5,569.0 270.5,567.0 272.5,565.0 272.5,563.0 274.5,561.0 276.0,561.5 274.0,563.5 275.0,563.5 277.0,561.5 277.0,559.5 279.0,557.5 279.5,559.0 279.5,560.0 281.5,558.0 284.0,556.5 286.0,554.5 288.5,553.0 291.0,551.5 293.5,550.0 296.0,548.5 298.5,547.0 298.5,546.0 297.0,545.5 299.5,544.0 302.0,542.5 302.0,543.5 301.0,545.5 303.5,544.0 306.0,542.5 305.0,542.5 304.5,541.0 307.0,539.5 310.0,538.5 312.5,537.0 315.0,535.5 318.0,534.5 321.0,533.5 324.0,532.5 326.5,531.0 329.5,530.0 332.5,529.0 335.5,528.0 339.0,527.5 341.5,528.0 340.0,526.5 343.0,525.5 346.5,525.0 350.0,524.5 353.0,523.5 356.0,522.5 359.5,522.0 363.0,521.5 366.0,520.5 370.0,520.5 373.0,519.5 377.0,519.5 380.0,518.5 384.0,518.5 388.0,518.5 392.0,518.5 396.0,518.5 400.0,518.5 404.0,518.5 408.0,518.5 412.0,518.5 416.0,518.5 419.0,519.5 423.0,519.5 426.0,520.5 430.0,520.5 433.5,521.0 437.0,521.5 440.0,522.5 443.5,523.0 447.0,523.5 450.0,524.5 453.0,525.5 456.5,526.0 459.5,527.0 463.0,527.5 465.5,529.0 469.0,529.5 472.0,530.5 474.5,532.0 477.5,533.0 480.0,534.5 483.0,535.5 485.5,536.0 487.0,536.5 488.5,538.0 491.5,539.0 494.0,540.5 497.0,541.5 499.5,543.0 502.0,544.5 505.0,545.5 507.0,547.5 510.0,548.5 512.5,550.0 515.0,551.5 517.5,553.0 520.0,554.5 522.5,556.0 525.0,557.5 527.0,559.5 530.0,560.5 532.0,562.5 534.5,564.0 537.0,565.5 539.0,567.5 541.5,569.0 544.0,570.5 546.5,572.0 548.5,574.0 551.0,575.5 553.5,577.0 556.0,578.5 558.0,580.5 560.5,582.0 562.5,584.0 565.0,585.5 567.0,587.5 569.5,589.0 572.0,590.5 574.0,592.5 576.5,594.0 578.5,596.0 581.0,597.5 583.5,599.0 585.5,601.0 588.0,602.5 590.0,604.5 592.5,606.0 594.5,608.0 597.0,609.5 599.0,611.5 601.5,613.0 603.5,615.0 606.0,616.5 608.0,618.5 610.5,620.0 613.0,621.5 615.0,623.5 617.5,625.0 620.0,626.5 622.0,628.5 624.5,630.0 627.0,631.5 629.5,633.0 632.0,634.5 634.5,636.0 637.0,637.5 639.5,639.0 642.0,640.5 644.5,642.0 647.0,643.5 649.5,645.0 652.0,646.5 655.0,647.5 657.5,649.0 660.0,650.5 663.0,651.5 665.5,653.0 668.0,654.5 671.0,655.5 674.0,656.5 676.5,658.0 679.0,659.5 682.0,660.5 685.0,661.5 688.0,662.5 691.0,663.5 694.0,664.5 696.5,666.0 700.0,666.5 703.0,667.5 706.0,668.5 709.0,669.5 712.0,670.5 715.0,671.5 718.0,672.5 721.0,673.5 725.0,673.5 728.0,674.5 731.0,675.5 735.0,675.5 738.0,676.5 742.0,676.5 745.5,677.0 749.0,677.5 753.0,677.5 757.0,677.5 759.5,678.0 762.5,678.0 765.0,677.5 769.0,677.5 773.0,677.5 777.0,677.5 780.0,676.5 784.0,676.5 788.0,676.5 791.0,675.5 795.0,675.5 797.5,677.0 794.0,677.5 791.0,678.5 788.0,679.5 785.0,680.5 781.5,681.0 778.0,681.5 775.0,682.5 772.0,683.5 768.0,683.5 765.0,684.5 761.0,684.5 758.0,685.5" fill="none" stroke="#314126" stroke-width="2"/><polyline points="676.0,735.5 672.0,735.5 668.0,735.5 665.0,734.5 661.0,734.5 657.0,734.5 653.0,734.5 649.0,734.5 646.0,733.5 642.0,733.5 638.0,733.5 635.0,732.5 631.0,732.5 628.0,731.5 624.0,731.5 621.0,730.5 618.0,729.5 614.0,729.5 611.0,728.5 608.0,727.5 605.0,726.5 601.5,726.0 598.5,725.0 595.5,724.0 598.5,723.0 595.5,723.0 592.0,723.5 589.0,722.5 586.0,721.5 583.5,720.0 585.0,718.5 582.0,717.5 579.0,716.5 580.5,718.0 577.5,718.0 574.5,717.0 572.0,715.5 569.0,714.5 566.0,713.5 568.0,712.5 570.5,714.0 572.0,713.5 569.0,712.5 566.0,711.5 563.5,710.0 561.0,708.5 558.0,707.5 559.5,709.0 556.5,709.0 554.0,707.5 551.0,706.5 548.5,705.0 546.0,703.5 547.5,703.0 550.0,704.5 552.5,705.0 550.0,703.5 547.5,702.0 545.0,700.5 542.5,700.0 542.0,701.5 539.5,700.0 537.0,698.5 534.5,697.0 532.0,695.5 533.5,695.0 533.5,694.0 531.0,692.5 531.0,694.5 528.0,693.5 527.0,691.5 529.5,692.0 527.0,690.5 525.0,688.5 526.0,690.5 524.5,691.0 522.0,691.5 519.0,690.5 517.0,690.5 513.0,690.5 509.0,690.5 506.0,689.5 503.0,690.5 500.0,689.5 496.0,689.5 492.0,689.5 489.0,688.5 485.0,688.5 481.0,688.5 478.0,687.5 474.0,687.5 471.0,686.5 467.5,686.0 464.0,685.5 461.0,684.5 457.0,684.5 454.0,683.5 451.0,682.5 448.0,681.5 444.5,681.0 441.0,680.5 438.0,679.5 435.0,678.5 432.0,677.5 429.0,676.5 426.0,675.5 427.5,674.0 425.0,672.5 425.0,673.5 423.0,674.5 420.0,673.5 417.5,672.0 419.0,670.5 416.0,671.5 413.0,670.5 410.0,669.5 407.0,668.5 404.5,667.0 402.0,665.5 399.0,664.5 400.5,663.0 398.0,661.5 395.0,660.5 392.5,659.0 390.0,657.5 387.5,657.0 387.0,658.5 384.5,657.0 384.5,655.0 382.0,653.5 381.0,653.5 379.5,654.0 377.0,652.5 374.5,651.0 376.0,649.5 373.5,648.0 371.0,646.5 368.5,645.0 366.0,643.5 364.0,641.5 361.5,640.0 361.5,641.0 361.0,642.5 359.0,640.5 356.5,639.0 354.0,637.5 353.0,635.5 355.5,637.0 355.5,636.0 353.0,634.5 351.0,632.5 348.5,631.0 346.5,629.0 346.5,630.0 348.5,632.0 346.0,631.5 344.0,629.5 344.0,627.5 342.0,625.5 343.0,627.5 341.5,628.0 339.5,626.0 339.5,624.0 337.5,622.0 335.0,620.5 333.0,618.5 332.0,618.5 334.0,620.5 336.5,622.0 338.5,624.0 338.0,625.5 336.0,623.5 333.5,622.0 331.5,620.0 329.5,618.0 329.5,616.0 329.5,617.0 327.0,616.5 324.0,615.5 320.0,615.5 317.0,614.5 314.0,613.5 310.5,613.0 307.0,612.5 303.0,612.5 300.0,611.5 296.0,611.5 292.0,611.5 288.0,611.5 284.0,611.5 280.0,611.5 276.0,611.5 272.0,611.5 269.0,612.5 265.0,612.5 262.0,613.5 258.0,613.5 255.0,614.5 252.0,615.5 248.5,616.0 245.0,616.5 242.0,617.5 239.5,616.0 242.0,616.5 244.5,615.0 247.0,613.5 249.5,614.0 250.0,612.5 252.5,613.0 251.0,611.5 254.0,610.5 256.5,609.0 259.0,607.5 262.0,606.5 265.0,605.5 268.0,604.5 271.0,603.5 274.0,602.5 277.0,601.5 280.0,600.5 283.5,600.0 287.0,599.5 290.0,598.5 293.5,598.0 297.0,597.5 300.0,596.5 304.0,596.5 307.0,595.5 311.0,595.5 315.0,595.5 318.0,594.5 322.0,594.5 326.0,594.5 330.0,594.5 334.0,594.5 338.0,594.5 342.0,594.5 346.0,594.5 348.0,594.5 351.0,595.5 355.0,595.5 358.5,596.0 362.0,596.5 366.0,596.5 369.0,597.5 373.0,597.5 376.0,598.5 379.0,599.5 383.0,599.5 386.0,600.5 389.0,601.5 392.5,602.0 396.0,602.5 399.0,603.5 402.0,604.5 405.0,605.5 408.0,606.5 411.0,607.5 411.0,608.5 412.5,609.0 415.5,609.0 418.5,610.0 421.5,611.0 424.0,612.5 427.0,613.5 430.0,614.5 433.0,615.5 435.5,617.0 438.0,618.5 441.0,619.5 444.0,620.5 446.5,622.0 449.0,623.5 452.0,624.5 454.5,626.0 457.0,627.5 460.0,628.5 462.5,630.0 465.0,631.5 468.0,632.5 470.5,634.0 473.0,635.5 475.5,637.0 478.0,638.5 480.5,640.0 479.0,641.5 481.5,642.0 482.0,640.5 484.5,642.0 484.0,643.5 483.0,643.5 485.5,645.0 485.5,644.0 488.0,644.5 490.5,646.0 490.5,648.0 493.0,649.5 493.0,647.5 496.0,648.5 497.0,650.5 498.0,652.5 498.0,650.5 501.0,651.5 502.0,653.5 499.5,653.0 502.0,654.5 503.0,654.5 504.5,654.0 507.0,655.5 507.0,657.5 509.5,659.0 509.5,658.0 512.0,658.5 514.5,660.0 514.5,662.0 517.0,663.5 517.0,661.5 520.0,662.5 521.0,664.5 518.5,664.0 521.0,665.5 522.0,665.5 523.5,665.0 526.0,666.5 524.5,667.0 524.5,668.0 527.0,669.5 529.5,670.0 527.0,668.5 529.0,667.5 531.0,669.5 533.5,671.0 533.5,673.0 533.5,672.0 536.5,672.0 536.0,673.5 537.5,675.0 537.5,674.0 540.0,674.5 543.0,675.5 545.5,677.0 548.0,678.5 551.0,679.5 553.5,681.0 556.0,682.5 559.0,683.5 562.0,684.5 564.5,686.0 567.0,687.5 567.0,688.5 568.5,690.0 571.0,691.5 571.0,690.5 568.5,689.0 571.5,689.0 574.0,690.5 577.0,691.5 580.0,692.5 583.0,693.5 586.0,694.5 589.0,695.5 592.0,696.5 595.0,697.5 598.0,698.5 601.0,699.5 604.0,700.5 607.0,701.5 610.0,702.5 613.0,703.5 616.0,704.5 619.5,705.0 623.0,705.5 626.0,706.5 629.0,707.5 633.0,707.5 636.0,708.5 640.0,708.5 643.0,709.5 647.0,709.5 650.0,710.5 654.0,710.5 657.5,711.0 661.0,711.5 665.0,711.5 669.0,711.5 673.0,711.5 675.5,712.0 678.0,712.5 682.0,712.5 686.0,712.5 689.5,712.0 693.0,711.5 697.0,711.5 701.0,711.5 704.0,710.5 706.0,710.5 710.0,710.5 713.0,709.5 715.0,709.5 719.0,709.5 722.0,708.5 726.0,708.5 729.0,707.5 733.0,707.5 736.0,706.5 739.0,705.5 743.0,705.5 746.0,704.5 746.0,705.5 746.0,706.5 749.0,705.5 751.0,704.5 747.5,704.0 751.0,703.5 749.0,702.5 746.0,703.5 742.0,703.5 739.0,704.5 735.5,705.0 732.0,705.5 728.0,705.5 724.5,706.0 722.0,707.5 719.0,706.5 715.0,706.5 711.0,706.5 707.0,706.5 703.0,706.5 699.0,706.5 695.0,706.5 691.0,706.5 687.0,706.5 683.0,706.5 679.0,706.5 676.0,705.5 672.0,705.5 668.5,705.0 665.0,704.5 661.0,704.5 658.0,703.5 654.5,703.0 651.0,702.5 648.0,701.5 645.0,702.5 643.0,700.5 640.0,699.5 636.5,699.0 633.0,698.5 630.0,697.5 627.0,696.5 624.0,695.5 621.0,694.5 618.0,693.5 614.5,693.0 612.0,691.5 609.0,690.5 606.0,689.5 603.0,688.5 600.0,687.5 597.0,686.5 594.0,685.5 591.0,684.5 588.5,683.0 586.0,681.5 583.0,680.5 580.0,679.5 577.5,678.0 574.5,677.0 572.0,675.5 569.0,674.5 566.5,673.0 564.0,671.5 561.0,670.5 558.5,669.0 556.0,667.5 553.5,666.0 551.0,664.5 548.5,663.0 546.0,661.5 543.0,660.5 541.0,658.5 538.0,657.5 536.0,655.5 533.0,654.5 530.5,653.0 528.0,651.5 525.5,650.0 523.0,648.5 520.5,647.0 518.0,645.5 515.5,644.0 513.0,642.5 510.5,641.0 508.0,639.5 505.5,638.0 503.0,636.5 500.5,635.0 498.0,633.5 495.5,632.0 493.0,630.5 490.5,629.0 488.0,627.5 485.5,626.0 483.0,624.5 480.0,623.5 477.5,622.0 475.0,620.5 472.5,619.0 470.0,617.5 467.0,616.5 464.5,615.0 462.0,613.5 459.0,612.5 456.5,611.0 454.0,609.5 451.0,608.5 448.0,607.5 445.5,606.0 443.0,604.5 440.0,603.5 437.0,602.5 434.0,601.5 431.5,600.0 428.5,599.0 425.5,598.0 422.5,597.0 420.0,595.5 416.5,595.0 413.5,594.0 410.5,593.0 407.5,592.0 404.0,591.5 401.0,590.5 398.0,589.5 394.5,589.0 391.0,588.5 388.0,587.5 384.5,587.0 381.0,586.5 378.0,585.5 374.0,585.5 371.0,584.5 367.0,584.5 363.0,584.5 360.0,583.5 356.0,583.5 352.0,583.5 348.0,583.5 344.0,583.5 340.0,583.5 336.0,583.5 332.0,583.5 328.0,583.5 324.0,583.5 320.5,584.0 317.0,584.5 313.0,584.5 310.0,585.5 306.0,585.5 303.0,586.5 299.5,587.0 296.0,587.5 293.0,588.5 290.0,589.5 286.5,590.0 283.0,590.5 280.0,591.5 277.0,592.5 274.0,593.5 271.0,594.5 268.0,595.5 265.5,597.0 262.5,598.0 259.5,599.0 257.0,600.5 254.0,601.5 251.5,603.0 249.0,604.5 246.0,605.5 243.5,607.0 241.0,608.5 238.5,610.0 236.0,611.5 233.5,613.0 231.0,614.5 228.5,616.0 226.0,617.5 224.0,619.5 221.5,621.0 220.0,623.5 218.5,621.0 220.5,619.0 222.5,617.0 224.5,615.0 226.0,612.5 228.0,610.5 230.5,609.0 232.5,607.0 234.5,605.0 237.0,603.5 239.0,601.5 241.5,600.0 243.5,598.0 246.0,596.5 248.5,595.0 251.0,593.5 253.5,592.0 256.0,590.5 259.0,589.5 260.5,587.0 262.5,587.0 265.5,586.0 268.0,584.5 271.0,583.5 274.0,582.5 276.5,581.0 279.0,579.5 282.0,578.5 285.0,577.5 288.0,576.5 291.0,575.5 294.0,574.5 297.0,573.5 300.0,572.5 303.0,571.5 306.5,571.0 310.0,570.5 313.0,569.5 316.0,568.5 319.5,568.0 323.0,567.5 326.0,566.5 329.5,566.0 333.0,565.5 337.0,565.5 340.0,564.5 344.0,564.5 347.0,563.5 351.0,563.5 355.0,563.5 358.0,562.5 362.0,562.5 366.0,562.5 370.0,562.5 374.0,562.5 378.0,562.5 382.0,562.5 385.0,563.5 389.0,563.5 393.0,563.5 396.0,564.5 400.0,564.5 404.0,564.5 407.0,565.5 410.5,566.0 414.0,566.5 417.0,567.5 421.0,567.5 424.0,568.5 427.0,569.5 430.5,570.0 434.0,570.5 437.0,571.5 440.0,572.5 443.0,573.5 446.0,574.5 449.0,575.5 452.0,576.5 455.0,577.5 458.0,578.5 461.0,579.5 464.0,580.5 467.0,581.5 470.0,582.5 473.0,583.5 476.0,584.5 478.5,586.0 481.5,587.0 484.0,588.5 487.0,589.5 489.5,591.0 492.0,592.5 495.0,593.5 497.5,595.0 500.0,596.5 503.0,597.5 505.5,599.0 508.0,600.5 511.0,601.5 513.0,603.5 516.0,604.5 518.5,606.0 521.0,607.5 523.5,609.0 526.0,610.5 528.5,612.0 531.0,613.5 533.5,615.0 536.0,616.5 538.5,618.0 541.0,619.5 543.5,621.0 546.0,622.5 548.5,624.0 551.0,625.5 553.5,627.0 556.0,628.5 558.0,630.5 560.5,632.0 563.0,633.5 565.5,635.0 568.0,636.5 570.5,638.0 573.0,639.5 575.5,641.0 578.0,642.5 580.5,644.0 583.0,645.5 585.5,647.0 588.0,648.5 591.0,649.5 593.0,651.5 596.0,652.5 598.0,654.5 601.0,655.5 603.5,657.0 606.0,658.5 608.5,660.0 611.0,661.5 614.0,662.5 616.5,664.0 619.0,665.5 622.0,666.5 624.5,668.0 627.0,669.5 630.0,670.5 632.5,672.0 635.0,673.5 638.0,674.5 641.0,675.5 644.0,676.5 646.5,678.0 649.5,679.0 652.0,680.5 655.0,681.5 658.0,682.5 661.0,683.5 664.0,684.5 667.0,685.5 670.0,686.5 673.0,687.5 676.0,688.5 679.0,689.5 682.5,690.0 686.0,690.5 689.0,691.5 692.0,692.5 695.5,693.0 699.0,693.5 702.0,694.5 706.0,694.5 709.0,695.5 713.0,695.5 716.0,696.5 720.0,696.5 723.5,697.0 727.0,697.5 731.0,697.5 735.0,697.5 739.0,697.5 743.0,697.5 747.0,697.5 751.0,697.5 753.5,696.0 757.0,695.5 759.0,695.5 763.0,695.5 766.5,695.0 770.0,694.5 774.0,694.5 777.0,693.5 780.5,694.0 778.0,695.5 778.0,696.5 780.5,695.0 783.5,694.0 780.5,693.0 783.0,691.5 786.0,690.5 789.0,689.5 792.0,688.5 795.0,687.5 798.0,686.5 800.5,685.0 803.0,683.5 806.0,682.5 809.0,681.5 809.0,683.5 811.5,682.0 814.0,680.5 813.0,680.5 812.5,679.0 815.0,677.5 818.0,676.5 820.5,675.0 822.0,675.5 823.0,675.5 823.0,673.5 825.5,672.0 827.0,672.5 828.0,672.5 828.0,670.5 830.5,669.0 833.0,667.5 835.0,665.5 838.0,664.5 838.0,666.5 839.0,664.5 840.0,662.5 842.5,661.0 845.0,659.5 845.0,661.5 846.0,659.5 847.0,657.5 849.5,656.0 851.5,654.0 853.0,654.5 854.0,654.5 856.5,653.0 858.5,651.0 859.0,652.5 857.5,655.0 855.5,657.0 853.5,659.0 851.5,660.0 849.5,661.0 847.5,663.0 845.5,665.0 845.5,666.0 847.5,664.0 849.5,662.0 850.0,663.5 848.0,665.5 846.0,667.5 844.0,669.5 842.0,671.5 839.5,673.0 837.5,675.0 835.5,677.0 833.5,679.0 831.0,680.5 830.0,680.5 829.0,682.5 826.5,683.0 826.5,682.0 826.5,684.0 824.5,686.0 822.0,687.5 823.0,685.5 822.0,685.5 819.5,687.0 819.5,688.0 821.0,688.5 818.5,690.0 816.0,691.5 816.0,689.5 815.0,691.5 814.0,693.5 813.5,692.0 811.5,693.0 811.5,695.0 809.0,696.5 806.5,697.0 806.5,696.0 804.0,697.5 805.0,697.5 805.5,699.0 803.0,700.5 802.5,699.0 800.0,699.5 799.0,701.5 801.5,701.0 799.0,702.5 796.5,704.0 794.0,705.5 791.0,706.5 788.5,707.0 788.5,706.0 786.0,707.5 783.0,708.5 780.5,710.0 779.0,711.5 779.0,712.5 776.5,714.0 773.5,714.0 776.0,712.5 776.0,711.5 773.5,713.0 772.0,714.5 772.0,715.5 769.5,717.0 766.5,718.0 763.5,719.0 761.0,720.5 757.5,720.0 754.5,720.0 751.5,721.0 750.0,722.5 753.0,721.5 756.0,720.5 756.0,721.5 753.0,722.5 750.0,723.5 747.0,722.5 747.0,723.5 747.0,724.5 744.0,725.5 742.0,724.5 744.0,723.5 741.0,724.5 739.0,725.5 741.0,726.5 738.0,727.5 734.5,728.0 731.0,728.5 728.0,729.5 724.5,730.0 721.0,730.5 718.0,731.5 714.0,731.5 711.0,732.5 707.5,733.0 704.0,733.5 700.0,733.5 696.5,734.0 693.0,734.5 689.0,734.5 685.0,734.5 681.0,734.5 677.0,734.5" fill="none" stroke="#314126" stroke-width="2"/>
</svg>